<?xml version="1.0" standalone="no"?>
<!DOCTYPE svg PUBLIC "-//W3C//DTD SVG 20010904//EN"
 "http://www.w3.org/TR/2001/REC-SVG-20010904/DTD/svg10.dtd">
<svg version="1.0" xmlns="http://www.w3.org/2000/svg"
 width="300.000000pt" height="501.000000pt" viewBox="0 0 300.000000 501.000000"
 preserveAspectRatio="xMidYMid meet">
<metadata>
Created by potrace 1.10, written by Peter Selinger 2001-2011
</metadata>
<g transform="translate(0.000000,501.000000) scale(0.100000,-0.100000)"
fill="#6a5acd" stroke="none">
<path d="M886 4425 c-71 -25 -131 -108 -155 -215 -28 -122 -9 -196 71 -273 68
-65 73 -93 13 -81 -19 3 -47 3 -61 0 l-26 -7 4 -93 c4 -107 19 -139 74 -162
44 -19 96 -10 135 23 41 35 36 11 -6 -31 -39 -40 -41 -44 -20 -72 8 -10 15
-30 15 -44 0 -36 35 -88 64 -96 39 -9 64 4 96 52 17 24 34 44 38 44 4 0 13 9
20 20 10 17 10 26 -3 48 -8 15 -19 45 -23 67 -5 28 -15 44 -32 52 -32 16 -82
17 -98 1 -15 -15 -16 -3 -1 20 9 14 19 16 53 11 72 -11 83 -18 90 -57 9 -60
50 -111 100 -124 l44 -12 -29 -46 c-28 -46 -145 -170 -160 -170 -4 0 -5 9 -2
20 9 33 -31 25 -73 -15 -20 -19 -38 -34 -38 -33 -1 2 -8 23 -16 48 -17 50 -48
67 -57 31 -7 -26 -12 -26 -29 -3 -39 50 -75 136 -81 192 -9 90 -28 90 -20 0 8
-93 57 -184 135 -247 l52 -43 -35 -22 c-19 -13 -35 -26 -35 -30 0 -15 27 -8
45 12 25 28 32 25 39 -15 6 -28 12 -35 29 -35 19 1 20 2 6 13 -9 7 -18 26 -21
44 -4 29 -2 32 29 38 82 15 201 113 243 200 26 53 27 53 33 -42 2 -49 1 -60
-9 -52 -23 19 -29 -56 -10 -123 18 -65 13 -92 -6 -40 -24 62 -41 27 -37 -73 2
-65 2 -66 -30 -83 -17 -9 -31 -20 -31 -24 0 -5 0 -15 0 -24 0 -10 6 -14 14
-11 10 4 16 -2 18 -20 2 -15 9 -29 17 -31 11 -4 12 3 7 30 -5 30 -3 36 14 41
18 5 20 13 20 87 0 73 2 81 15 70 27 -22 36 1 25 59 -12 66 -13 94 -1 87 5 -3
11 1 15 9 8 22 -5 178 -17 193 -7 8 -5 12 6 12 29 0 127 157 127 203 0 15 -45
40 -92 52 -40 10 -34 30 15 49 104 40 165 148 183 328 9 91 -8 154 -48 174
-26 14 -32 14 -53 0 -40 -26 -74 -97 -106 -222 -16 -65 -37 -132 -45 -148 -16
-34 -17 -36 -6 -36 17 0 51 79 76 176 43 170 62 198 26 37 -32 -141 -41 -166
-67 -201 -29 -39 -25 -54 7 -20 32 34 49 80 75 210 35 170 60 221 90 182 23
-30 28 -96 15 -191 -18 -140 -73 -237 -154 -274 l-40 -18 -19 42 c-14 29 -21
37 -24 25 -2 -9 5 -35 17 -57 l20 -41 -69 0 c-59 0 -72 -3 -84 -20 -13 -19
-16 -19 -44 -5 -23 11 -38 13 -56 6 -22 -9 -26 -7 -29 12 -4 26 -57 63 -112
78 l-41 11 46 39 46 40 -25 51 c-33 70 -40 186 -18 296 19 93 34 138 42 129 4
-3 -2 -39 -12 -79 -22 -92 -23 -233 -1 -308 33 -111 125 -180 224 -166 26 3
56 12 68 20 24 16 24 13 0 176 -8 52 -17 119 -21 148 -4 34 -13 60 -26 72 -17
15 -18 22 -8 40 7 13 8 20 2 16 -6 -3 -13 -2 -17 4 -4 6 -11 8 -16 4 -5 -3 -7
-10 -4 -15 4 -5 0 -9 -7 -9 -10 0 -10 -2 1 -9 8 -5 11 -16 8 -26 -6 -13 -3
-15 13 -10 11 4 20 4 20 1 0 -3 -26 -45 -58 -93 -81 -122 -100 -154 -113 -185
-6 -16 -15 -28 -19 -28 -4 0 -16 29 -25 65 -20 72 -17 226 6 322 11 48 11 55
-6 73 -21 23 -27 24 -79 5z m25 -80 c-47 -152 -47 -259 -1 -358 l22 -47 -23
-20 c-31 -25 -36 -25 -76 6 -122 93 -99 349 42 456 27 20 51 36 53 34 2 -2 -6
-34 -17 -71z m321 -420 c3 -28 1 -30 -44 -39 -51 -10 -109 6 -157 43 l-24 18
69 113 c38 61 74 119 79 128 6 10 14 24 20 32 7 11 16 -25 32 -125 12 -77 23
-153 25 -170z m-286 -120 c37 -18 54 -33 56 -48 2 -18 10 -22 43 -23 22 0 51
-6 63 -13 21 -11 26 -10 43 8 41 43 240 15 247 -35 5 -34 -60 -147 -93 -163
-66 -32 -155 37 -155 122 0 30 -3 38 -14 34 -8 -3 -20 1 -27 10 -10 11 -24 14
-56 9 -25 -3 -43 -2 -43 4 0 22 -20 8 -36 -25 -44 -93 -174 -105 -209 -20 -15
35 -20 130 -8 160 9 26 121 13 189 -20z m142 -171 c15 -10 22 -24 22 -47 1
-17 7 -43 15 -57 19 -35 -4 -60 -56 -60 -38 0 -38 0 -33 33 4 17 14 37 23 44
34 26 41 35 36 44 -4 5 -17 6 -30 3 -16 -4 -26 0 -33 12 -11 19 -32 11 -32
-13 0 -9 7 -24 15 -33 10 -11 13 -27 8 -53 -5 -32 -9 -37 -27 -31 -32 9 -66
33 -73 50 -4 10 7 27 27 45 24 22 31 36 28 54 -3 13 -2 23 1 21 3 -2 15 0 26
4 23 10 50 4 83 -16z m-50 -182 l53 -5 -27 -28 c-39 -41 -77 -39 -98 5 -20 43
-20 50 2 41 9 -4 41 -10 70 -13z m-90 -157 c6 -14 8 -25 4 -25 -12 0 -32 23
-32 37 0 22 16 15 28 -12z m122 -1 c0 -11 -34 -33 -50 -33 -10 -1 -6 6 10 19
26 20 40 25 40 14z"/>
<path d="M1105 4060 c-3 -5 1 -10 10 -10 9 0 13 5 10 10 -3 6 -8 10 -10 10 -2
0 -7 -4 -10 -10z"/>
<path d="M773 3805 c-13 -35 3 -125 27 -150 49 -52 130 -19 165 67 16 40 16
43 -2 55 -25 19 -110 43 -150 43 -21 0 -36 -6 -40 -15z m136 -26 c37 -12 64
-29 45 -29 -6 0 -11 -6 -11 -13 0 -21 -35 -68 -57 -77 -22 -8 -66 7 -66 22 0
5 -4 6 -10 3 -6 -4 -7 1 -3 11 4 12 3 15 -5 10 -8 -5 -12 3 -12 23 0 18 5 31
13 31 9 0 8 3 -2 9 -7 5 -11 14 -7 20 8 12 60 8 115 -10z"/>
<path d="M1170 3710 c-15 -28 -1 -97 26 -130 28 -33 63 -44 98 -30 29 11 74
76 82 120 6 27 4 29 -47 44 -76 23 -145 21 -159 -4z m139 -14 c13 -3 29 -13
36 -23 11 -15 11 -23 -3 -47 -10 -16 -30 -37 -46 -47 -27 -16 -31 -16 -63 -1
-20 9 -32 21 -29 29 3 7 1 13 -4 13 -5 0 -7 9 -5 20 2 11 0 20 -6 20 -5 0 -8
10 -8 23 1 16 2 18 6 5 6 -24 20 -23 28 1 6 19 31 21 94 7z"/>
<path d="M1206 4376 c4 -9 -2 -13 -21 -11 -16 2 -25 -1 -22 -8 4 -14 67 -20
67 -7 0 5 3 15 6 24 4 11 0 16 -15 16 -13 0 -19 -5 -15 -14z"/>
<path d="M1249 4348 c-8 -7 -22 -22 -29 -33 -13 -17 -11 -17 17 3 18 13 35 27
38 32 9 14 -9 12 -26 -2z"/>
<path d="M1272 4323 c-7 -3 -23 -15 -36 -28 -17 -17 -20 -27 -13 -44 6 -11 14
-21 19 -21 5 0 4 9 -2 19 -15 29 -12 39 5 17 16 -21 28 -16 30 12 0 9 5 23 9
30 10 16 6 21 -12 15z"/>
<path d="M743 3598 c-6 -7 -35 -62 -64 -121 -51 -103 -53 -110 -35 -122 17
-13 17 -16 -8 -71 -30 -65 -34 -104 -10 -104 12 0 6 -13 -22 -47 -58 -74 -58
-73 -44 -73 21 0 89 82 107 128 18 48 11 67 -13 34 -31 -45 -32 -20 -1 41 43
83 77 162 77 176 0 21 -18 11 -30 -18 -12 -30 -50 -71 -50 -55 0 5 17 38 38
74 40 69 77 158 69 166 -2 2 -9 -1 -14 -8z"/>
<path d="M596 3065 c-38 -34 -35 -46 5 -24 19 10 19 9 -2 -33 -12 -24 -32 -57
-45 -75 -30 -39 -30 -41 2 -53 19 -8 31 -6 49 8 14 9 25 20 25 24 0 9 -30 6
-47 -5 -19 -12 -16 4 7 38 45 66 76 156 53 155 -5 -1 -26 -16 -47 -35z"/>
<path d="M1105 2970 c-3 -5 -23 -15 -44 -21 -32 -9 -38 -16 -37 -35 1 -30 15
-30 75 1 40 20 48 28 44 45 -6 21 -27 27 -38 10z"/>
<path d="M600 2934 c0 -8 5 -12 10 -9 6 3 10 10 10 16 0 5 -4 9 -10 9 -5 0
-10 -7 -10 -16z"/>
<path d="M1152 2918 c-15 -15 -16 -52 -2 -43 6 4 7 11 4 17 -4 6 1 8 16 3 20
-6 21 -5 11 14 -14 25 -13 25 -29 9z"/>
<path d="M955 2910 c-11 -4 -50 -11 -87 -15 -38 -4 -68 -11 -68 -15 0 -42 33
-49 129 -26 46 10 56 17 62 39 8 29 0 32 -36 17z"/>
<path d="M640 2884 c0 -7 -9 -14 -20 -17 -24 -6 -26 -22 -5 -31 8 -3 15 -1 15
5 0 6 24 7 66 3 60 -5 66 -4 60 11 -3 9 -6 20 -6 25 0 4 -25 10 -55 12 -36 2
-55 -1 -55 -8z"/>
<path d="M1200 2880 c0 -5 5 -10 11 -10 13 0 40 -26 38 -37 -4 -17 14 -43 30
-43 12 1 11 5 -8 20 -13 11 -18 20 -12 20 18 0 12 21 -11 41 -25 20 -48 25
-48 9z"/>
<path d="M2492 2860 c0 -14 2 -19 5 -12 2 6 2 18 0 25 -3 6 -5 1 -5 -13z"/>
<path d="M990 2851 c0 -12 28 -22 35 -12 3 5 -2 12 -11 15 -21 8 -24 8 -24 -3z"/>
<path d="M778 2833 c-27 -7 -21 -23 7 -23 14 0 25 4 25 9 0 13 -12 18 -32 14z"/>
<path d="M512 2775 c-50 -48 -54 -55 -34 -55 15 0 21 -4 16 -12 -4 -7 -3 -8 4
-4 6 4 9 12 6 19 -5 13 50 70 76 79 12 4 14 -3 11 -39 -2 -26 -9 -47 -17 -50
-8 -3 -13 -15 -13 -27 1 -16 2 -17 6 -3 6 21 23 23 23 1 0 -8 5 -12 10 -9 6 4
8 11 5 16 -3 5 -1 34 4 66 9 44 8 59 -1 65 -25 15 -40 8 -96 -47z"/>
<path d="M1017 2814 c-3 -4 1 -17 10 -30 20 -32 27 -25 10 9 -8 15 -17 24 -20
21z"/>
<path d="M1150 2798 c0 -19 2 -20 10 -8 13 19 13 30 0 30 -5 0 -10 -10 -10
-22z"/>
<path d="M1190 2815 c0 -15 34 -55 46 -55 20 0 17 24 -4 43 -18 16 -42 23 -42
12z m34 -21 c3 -8 2 -12 -4 -9 -6 3 -10 10 -10 16 0 14 7 11 14 -7z"/>
<path d="M2466 2801 c-4 -7 -5 -15 -2 -18 9 -9 19 4 14 18 -4 11 -6 11 -12 0z"/>
<path d="M761 2784 c0 -11 3 -14 6 -6 3 7 2 16 -1 19 -3 4 -6 -2 -5 -13z"/>
<path d="M810 2793 c1 -24 66 -71 79 -57 3 4 0 9 -7 11 -7 3 -26 16 -42 30
-17 14 -30 21 -30 16z"/>
<path d="M1185 2753 c24 -51 27 -83 9 -83 -11 0 -14 5 -10 16 7 19 -3 64 -15
64 -12 0 -11 -82 1 -115 6 -15 15 -23 21 -20 6 4 24 -5 40 -21 40 -38 50 -22
12 19 -28 29 -31 37 -26 77 4 35 1 50 -15 68 -26 30 -33 28 -17 -5z"/>
<path d="M536 2731 c-9 -16 -27 -38 -41 -49 -28 -22 -33 -37 -10 -28 18 6 20
-5 4 -21 -6 -6 -13 -32 -14 -58 -3 -35 -11 -55 -31 -76 -31 -33 -26 -49 8 -27
26 17 78 108 78 135 -1 17 -1 17 -14 1 -7 -10 -16 -18 -19 -18 -6 0 16 59 34
90 34 58 38 69 29 75 -5 3 -16 -8 -24 -24z"/>
<path d="M764 2749 c-3 -6 -1 -16 5 -22 8 -8 11 -5 11 11 0 24 -5 28 -16 11z"/>
<path d="M1050 2736 c0 -9 5 -16 10 -16 6 0 10 4 10 9 0 6 -4 13 -10 16 -5 3
-10 -1 -10 -9z"/>
<path d="M924 2725 c3 -8 -2 -18 -11 -23 -11 -7 -12 -11 -4 -16 16 -10 42 19
35 38 -3 9 -11 16 -16 16 -6 0 -8 -7 -4 -15z"/>
<path d="M817 2723 c-3 -3 3 -15 14 -26 12 -13 15 -23 9 -27 -7 -4 -5 -11 4
-20 14 -11 15 -8 12 18 -3 31 -29 66 -39 55z"/>
<path d="M855 2720 c3 -5 11 -10 16 -10 6 0 7 5 4 10 -3 6 -11 10 -16 10 -6 0
-7 -4 -4 -10z"/>
<path d="M2791 2704 c0 -11 3 -14 6 -6 3 7 2 16 -1 19 -3 4 -6 -2 -5 -13z"/>
<path d="M763 2690 c-7 -17 -7 -30 0 -42 13 -19 31 -13 23 8 -3 8 -1 14 4 14
5 0 12 -9 15 -20 3 -11 11 -20 16 -20 13 0 -7 36 -25 47 -7 4 -15 15 -18 23
-4 11 -8 8 -15 -10z"/>
<path d="M1190 2592 c0 -5 16 -27 35 -49 l34 -40 143 -8 c79 -4 163 -11 188
-15 27 -5 50 -5 57 1 7 6 13 7 17 0 3 -5 25 -12 49 -16 154 -24 371 -109 497
-195 105 -72 186 -164 175 -200 l-6 -20 41 21 c52 27 102 22 167 -17 43 -26
45 -29 24 -32 l-23 -4 23 -16 c13 -9 27 -16 32 -14 4 1 7 -6 7 -16 0 -17 68
-92 83 -92 16 0 5 19 -35 66 -24 26 -37 45 -30 40 23 -14 12 9 -22 46 -53 58
-109 81 -180 76 l-61 -5 -35 55 c-108 169 -446 329 -775 366 -80 9 -215 10
-271 2 -52 -8 -52 -8 -85 33 -31 39 -49 51 -49 33z"/>
<path d="M455 2438 c-7 -18 -16 -80 -20 -138 -4 -58 -12 -116 -17 -129 -7 -19
-6 -22 8 -17 13 5 15 2 9 -11 -16 -39 -17 -123 -2 -175 9 -29 19 -70 22 -90 3
-21 10 -38 16 -38 14 0 -1 110 -18 139 -12 19 -14 39 -8 90 9 85 13 145 19
252 2 47 9 96 15 107 14 26 14 42 0 42 -5 0 -16 -15 -24 -32z"/>
<path d="M1120 2196 c0 -2 8 -10 18 -17 15 -13 16 -12 3 4 -13 16 -21 21 -21
13z"/>
<path d="M1876 2183 c-6 -14 -5 -15 5 -6 7 7 10 15 7 18 -3 3 -9 -2 -12 -12z"/>
<path d="M529 1968 c-1 -13 -3 -39 -5 -58 -1 -19 7 -60 18 -90 11 -30 24 -71
30 -90 5 -19 18 -51 29 -70 10 -19 23 -55 29 -78 7 -25 27 -61 49 -85 47 -53
51 -64 57 -161 3 -67 0 -91 -22 -155 -15 -42 -26 -87 -26 -101 0 -14 -4 -29
-8 -35 -4 -5 -13 -41 -19 -80 -7 -38 -19 -94 -27 -124 -13 -44 -18 -52 -35
-48 -10 3 -19 1 -19 -4 0 -5 -5 -9 -11 -9 -7 0 -9 10 -5 28 6 26 6 26 -9 8 -8
-11 -15 -25 -15 -30 0 -6 -9 -22 -20 -36 -26 -33 -25 -37 10 -45 24 -5 34 -1
60 27 42 45 65 98 84 193 35 177 48 227 55 216 6 -8 13 -4 25 14 14 22 17 43
12 123 -2 53 -5 107 -5 120 -1 29 -38 102 -51 102 -17 0 -49 62 -60 117 -6 29
-18 57 -27 61 -15 9 -43 97 -43 135 0 10 -4 16 -9 13 -13 -8 -21 30 -21 102 0
34 -4 62 -10 62 -5 0 -11 -10 -11 -22z m37 -1224 c-11 -7 -22 -12 -25 -9 -2 3
4 12 15 19 10 8 21 12 24 9 3 -2 -4 -11 -14 -19z"/>
<path d="M1450 1975 c0 -8 2 -15 4 -15 2 0 6 7 10 15 3 8 1 15 -4 15 -6 0 -10
-7 -10 -15z"/>
<path d="M2365 1884 c12 -66 89 -154 134 -154 15 0 3 50 -16 70 -14 13 -15 12
-8 -15 l7 -30 -31 29 c-17 16 -40 53 -53 83 -25 61 -43 70 -33 17z"/>
<path d="M2650 1875 c0 -33 22 -82 54 -120 37 -44 40 -26 7 46 -16 35 -31 72
-35 82 -8 26 -26 21 -26 -8z"/>
<path d="M2340 1783 c0 -99 -40 -280 -59 -268 -9 5 -21 -19 -66 -135 -33 -84
-119 -267 -152 -325 -51 -87 -68 -111 -84 -125 -34 -28 -132 -466 -100 -446 6
4 11 15 11 25 0 9 20 99 45 198 43 176 46 183 107 274 82 123 176 312 214 429
9 30 25 63 35 73 39 37 87 252 74 333 -10 70 -25 51 -25 -33z"/>
<path d="M2590 1819 c0 -17 76 -89 94 -89 23 0 20 17 -4 25 -11 3 -32 22 -46
41 -27 34 -44 43 -44 23z"/>
<path d="M465 1793 c17 -74 37 -121 80 -187 8 -12 12 -25 9 -29 -3 -3 5 -34
19 -69 28 -73 40 -135 26 -143 -5 -4 -9 -24 -9 -47 0 -32 3 -38 13 -30 9 8 13
38 13 99 -1 74 -5 97 -27 140 -14 29 -22 50 -17 47 13 -8 9 4 -19 59 -14 29
-37 81 -49 117 -24 66 -50 97 -39 43z"/>
<path d="M2545 1753 c3 -16 2 -22 -1 -15 -3 6 -10 12 -15 12 -6 0 -6 -7 0 -18
10 -20 122 -49 141 -37 16 10 -7 25 -38 25 -13 0 -37 14 -54 30 -36 37 -40 37
-33 3z"/>
<path d="M1177 1748 c-4 -16 -9 -40 -12 -55 -13 -65 -52 -142 -100 -195 -40
-45 -54 -70 -64 -112 -14 -61 -46 -110 -67 -102 -8 3 -14 1 -14 -5 0 -6 -4 -8
-8 -5 -5 3 -32 -104 -61 -237 -73 -335 -68 -317 -94 -317 -28 0 -51 15 -44 28
7 9 36 243 40 317 2 22 7 46 11 53 12 19 4 22 -17 7 -16 -11 -21 -42 -34 -202
-14 -166 -19 -194 -42 -238 -14 -27 -27 -53 -29 -57 -2 -5 17 -8 41 -8 37 0
47 4 52 20 3 11 19 33 35 49 30 30 65 148 136 459 22 99 31 122 45 122 24 0
54 40 69 95 7 25 14 45 16 45 3 0 21 -11 42 -23 45 -29 93 -52 150 -71 41 -15
42 -15 42 7 -1 18 -16 29 -76 56 -41 19 -88 44 -105 57 l-30 22 31 25 c62 52
107 172 98 257 -4 35 -4 35 -11 8z m-448 -1081 c-11 -20 -36 -33 -46 -23 -3 3
5 14 18 25 13 11 18 20 12 21 -7 0 -13 -5 -13 -12 0 -6 -3 -8 -7 -4 -5 4 1 14
11 22 25 17 40 0 25 -29z"/>
<path d="M1537 1613 c-4 -3 -7 -15 -7 -26 0 -16 3 -17 15 -7 8 7 15 19 15 26
0 15 -12 19 -23 7z"/>
<path d="M1600 1570 c0 -5 5 -10 11 -10 5 0 7 5 4 10 -3 6 -8 10 -11 10 -2 0
-4 -4 -4 -10z"/>
<path d="M1533 1554 c-27 -11 5 -192 41 -234 8 -8 21 -37 31 -65 10 -27 30
-66 44 -85 15 -19 33 -55 41 -80 15 -45 95 -140 118 -140 19 0 3 23 -33 50
-19 14 -35 33 -35 43 0 10 -7 20 -15 23 -8 4 -13 10 -10 14 9 14 -37 121 -50
116 -7 -2 -24 31 -45 90 -19 52 -39 94 -46 94 -11 0 -31 122 -26 163 1 9 1 17
-1 16 -1 0 -7 -3 -14 -5z"/>
<path d="M1288 1326 c-3 -16 0 -27 10 -31 21 -8 24 -2 13 29 -13 32 -17 33
-23 2z"/>
<path d="M1327 1310 c5 -19 12 -21 77 -18 l71 3 15 -45 c22 -62 70 -136 79
-121 5 7 -9 44 -30 84 -21 40 -39 75 -39 78 0 4 14 9 30 13 17 3 30 10 30 16
0 12 -64 13 -107 1 -17 -5 -34 -7 -37 -4 -3 3 -25 8 -50 10 -41 3 -44 2 -39
-17z"/>
<path d="M591 1252 c-7 -13 -11 -26 -8 -28 8 -8 29 25 25 38 -3 8 -9 4 -17
-10z"/>
<path d="M593 1208 c-5 -7 -10 -42 -12 -78 -3 -82 -20 -239 -28 -265 -5 -17
-4 -18 9 -7 16 13 33 117 44 275 7 87 5 98 -13 75z"/>
<path d="M1586 1122 c-6 -17 3 -45 29 -100 20 -42 43 -85 52 -94 13 -14 15
-47 15 -180 0 -149 -3 -169 -25 -230 -14 -36 -23 -69 -20 -72 4 -3 19 -6 35
-6 22 0 35 10 64 50 20 28 38 49 41 46 2 -2 -9 -29 -25 -59 l-29 -55 39 -12
c22 -6 41 -10 43 -8 1 2 14 22 29 46 29 46 24 72 -14 72 -25 0 -29 8 -20 43
13 48 33 325 26 353 -4 13 -10 24 -15 24 -10 0 -18 -74 -27 -262 l-6 -128 -28
0 c-52 0 -59 7 -48 47 8 28 7 158 -2 296 -1 20 -79 169 -93 178 -5 4 -7 11 -3
17 3 6 2 21 -3 33 l-8 24 -7 -23z m130 -595 c19 7 18 -10 -3 -33 -24 -26 -43
-28 -43 -4 0 14 5 18 18 13 14 -6 15 -4 5 9 -7 8 -10 18 -6 22 4 4 9 3 11 -3
2 -5 10 -7 18 -4z m102 -50 c3 -21 -2 -29 -20 -36 -13 -4 -29 -6 -37 -3 -12 4
-11 7 3 12 10 3 17 9 17 13 -4 36 1 48 17 45 10 -2 18 -14 20 -31z"/>
</g>
</svg>
