<?xml version="1.0" standalone="no"?>
<!DOCTYPE svg PUBLIC "-//W3C//DTD SVG 20010904//EN"
 "http://www.w3.org/TR/2001/REC-SVG-20010904/DTD/svg10.dtd">
<svg version="1.0" xmlns="http://www.w3.org/2000/svg"
 width="300.000000pt" height="438.000000pt" viewBox="0 0 300.000000 438.000000"
 preserveAspectRatio="xMidYMid meet">
<metadata>
Created by potrace 1.10, written by Peter Selinger 2001-2011
</metadata>
<g transform="translate(0.000000,438.000000) scale(0.100000,-0.100000)"
fill="#008000" stroke="none">
<path d="M2081 4316 c-14 -17 -13 -29 8 -151 21 -115 14 -251 -14 -319 l-13
-30 -17 35 c-29 55 -157 254 -166 257 -5 2 -9 10 -9 19 0 10 6 12 21 8 18 -6
20 -4 14 14 -4 12 -2 21 4 21 18 0 12 18 -6 23 -17 4 -17 5 0 6 9 0 17 6 17
11 0 6 -11 8 -27 4 -23 -5 -26 -4 -15 7 18 19 15 34 -5 18 -15 -13 -16 -12
-11 9 4 12 2 20 -3 16 -5 -3 -9 -11 -9 -18 0 -23 -22 -36 -42 -25 -32 17 -43
4 -13 -15 15 -10 30 -14 34 -9 3 5 15 9 26 8 28 0 32 -42 6 -66 -12 -11 -22
-38 -26 -66 -3 -27 -12 -93 -20 -148 -8 -55 -16 -122 -17 -149 -3 -48 -2 -49
32 -62 19 -7 56 -13 81 -13 79 -2 156 66 196 172 23 61 23 241 -1 334 -22 88
-16 121 8 41 51 -175 49 -268 -11 -450 -3 -11 0 -18 7 -18 6 0 25 -14 42 -31
25 -25 29 -33 17 -40 -8 -5 -20 -9 -28 -9 -29 0 -102 -55 -107 -80 -5 -23 -10
-25 -43 -22 -25 3 -41 -1 -50 -12 -17 -20 -31 -21 -31 -1 0 20 -41 29 -106 22
-30 -3 -54 -4 -54 -2 0 2 9 25 20 51 11 26 19 52 16 58 -2 6 -12 -8 -22 -31
-11 -24 -22 -43 -27 -43 -4 0 -26 9 -50 20 -64 31 -113 108 -137 217 -23 105
-25 191 -6 238 33 79 64 32 101 -151 14 -71 33 -148 42 -171 16 -45 58 -91 70
-78 5 4 2 10 -5 12 -24 9 -55 87 -83 212 -16 69 -29 130 -29 135 1 20 27 -49
39 -104 18 -80 52 -181 69 -207 25 -39 32 -25 11 22 -11 25 -29 86 -40 137
-30 144 -68 221 -120 249 -28 15 -66 -12 -86 -59 -26 -62 -5 -233 42 -346 23
-54 92 -119 143 -134 52 -16 54 -35 5 -50 -21 -7 -51 -22 -67 -35 -28 -23 -28
-24 -13 -53 8 -16 25 -48 36 -71 24 -49 74 -103 94 -103 8 0 22 -18 32 -40 22
-48 125 -148 180 -175 22 -10 59 -20 83 -23 32 -4 42 -8 38 -19 -4 -8 -6 -25
-6 -38 0 -14 -7 -25 -17 -28 -17 -4 -17 -4 1 -12 22 -10 36 8 36 48 0 33 8 34
38 2 13 -13 30 -21 38 -18 17 6 19 23 2 23 -7 0 -24 9 -38 20 l-25 20 47 40
c86 74 151 230 129 306 -7 24 -5 35 5 46 18 18 34 104 34 183 0 71 -8 77 -81
68 -65 -9 -67 12 -5 71 89 87 111 168 82 297 -31 137 -103 227 -188 236 -33 4
-47 1 -57 -11z m88 -36 c46 -34 96 -105 111 -160 42 -145 12 -274 -78 -338
l-27 -20 -28 24 c-27 23 -28 24 -11 56 25 47 44 126 44 178 -1 48 -28 178 -53
248 -8 23 -11 42 -7 42 4 0 26 -14 49 -30z m-275 -227 c15 -27 51 -86 81 -133
72 -113 71 -108 45 -135 -39 -41 -160 -70 -197 -47 -9 5 -6 48 12 172 12 90
21 170 18 177 -3 7 -1 13 4 13 6 0 22 -21 37 -47z m406 -358 c15 -18 8 -151
-9 -184 -15 -28 -62 -51 -105 -51 -40 0 -88 35 -113 84 -10 19 -18 26 -21 18
-2 -8 1 -19 7 -25 17 -17 13 -29 -9 -22 -28 9 -98 -13 -110 -35 -5 -10 -10
-31 -10 -47 0 -15 -7 -37 -15 -47 -8 -11 -15 -27 -15 -35 0 -21 126 -141 148
-141 35 1 82 56 82 97 0 10 7 31 15 47 21 41 20 46 -30 94 -25 24 -45 49 -45
55 0 6 15 -3 33 -20 28 -26 89 -57 99 -49 1 2 20 6 40 10 l37 7 -5 -53 c-8
-73 -29 -136 -66 -194 -29 -46 -31 -48 -39 -26 -17 45 -56 20 -66 -42 -5 -32
-23 -52 -23 -26 0 14 -60 50 -82 50 -12 0 -18 -8 -18 -21 0 -21 -1 -21 -27 -3
-58 38 -173 163 -173 188 0 3 11 6 25 6 41 0 102 69 110 124 6 38 13 49 41 67
23 14 43 19 59 15 14 -4 25 -2 25 4 0 26 -87 19 -105 -10 -3 -5 -11 -8 -16 -5
-5 4 -9 -2 -9 -13 0 -10 -7 -42 -16 -71 -17 -60 -56 -91 -115 -91 -41 0 -74
30 -108 97 -34 69 -29 87 32 114 28 12 79 25 113 27 52 4 64 1 81 -17 17 -19
21 -19 47 -6 16 8 45 15 66 15 35 0 39 3 42 28 2 22 14 32 58 54 30 15 80 32
110 37 30 5 58 9 61 10 4 0 12 -6 19 -14z m-236 -211 c9 -8 16 -21 16 -27 0
-7 14 -24 32 -38 37 -31 34 -50 -14 -79 -46 -28 -55 -25 -63 16 -4 26 -2 41 9
53 9 10 16 25 16 34 0 21 -36 23 -43 3 -4 -9 -15 -12 -32 -8 -22 4 -26 1 -23
-14 2 -11 13 -23 25 -29 12 -5 24 -19 27 -31 3 -12 9 -29 12 -38 5 -13 -1 -16
-33 -16 -22 0 -48 6 -59 14 -18 14 -18 16 -2 44 10 16 15 32 12 35 -3 3 -3 19
1 36 11 51 86 79 119 45z m44 -191 c-29 -67 -66 -77 -115 -31 -25 23 -21 42 6
33 9 -3 37 1 61 9 62 19 61 19 48 -11z m42 -137 c0 -7 -7 -19 -15 -26 -16 -13
-20 -3 -9 24 8 20 24 21 24 2z m-109 -36 c13 -10 21 -19 17 -20 -14 0 -58 23
-58 32 0 14 16 9 41 -12z"/>
<path d="M1870 4020 c0 -5 5 -10 11 -10 5 0 7 5 4 10 -3 6 -8 10 -11 10 -2 0
-4 -4 -4 -10z"/>
<path d="M1890 3933 c-29 -13 -32 -17 -15 -21 10 -2 21 1 23 7 2 6 12 11 23
11 10 0 19 5 19 10 0 13 -9 12 -50 -7z"/>
<path d="M1945 3860 c-16 -10 -48 -19 -70 -20 l-40 -2 33 -10 c26 -9 40 -7 72
7 22 10 40 24 40 32 0 16 2 16 -35 -7z"/>
<path d="M1830 3769 c0 -5 5 -7 10 -4 6 3 10 8 10 11 0 2 -4 4 -10 4 -5 0 -10
-5 -10 -11z"/>
<path d="M2197 3674 c-46 -11 -108 -35 -125 -49 -1 -1 7 -25 19 -53 18 -42 29
-55 65 -72 49 -24 70 -21 104 15 18 19 24 39 28 93 5 82 0 86 -91 66z m70 -34
c7 -10 9 -22 4 -25 -5 -3 -7 -14 -4 -25 6 -23 -32 -80 -54 -80 -32 0 -79 32
-97 65 -19 35 -19 36 0 50 10 8 30 18 44 21 14 3 30 7 35 9 29 10 61 3 72 -15z"/>
<path d="M1740 3547 c-63 -22 -65 -23 -63 -55 0 -18 13 -51 27 -72 65 -98 186
-36 186 95 0 59 -42 69 -150 32z m114 -32 c16 -38 7 -85 -15 -85 -7 0 -10 -3
-6 -6 3 -4 -1 -13 -9 -22 -14 -13 -17 -13 -25 -1 -8 13 -13 6 -10 -16 1 -5 -5
-2 -13 8 -8 10 -17 18 -20 17 -21 -3 -56 46 -56 78 0 19 20 32 75 50 52 18 64
14 79 -23z m26 10 c0 -8 -4 -15 -10 -15 -5 0 -10 7 -10 15 0 8 5 15 10 15 6 0
10 -7 10 -15z"/>
<path d="M1810 4256 c0 -2 7 -9 15 -16 12 -10 15 -10 15 4 0 9 -7 16 -15 16
-8 0 -15 -2 -15 -4z"/>
<path d="M1760 4193 c0 -5 7 -16 15 -26 7 -11 11 -26 8 -35 -5 -12 -1 -12 19
4 23 17 30 42 7 29 -5 -4 -9 0 -9 8 0 8 -7 18 -16 21 -20 8 -24 8 -24 -1z"/>
<path d="M1806 4113 c-6 -14 -5 -15 5 -6 7 7 10 15 7 18 -3 3 -9 -2 -12 -12z"/>
<path d="M55 3828 c4 -23 11 -49 16 -58 4 -8 11 -28 14 -44 3 -15 8 -26 11
-23 3 3 -1 30 -10 60 -9 30 -16 67 -16 81 0 14 -5 26 -11 26 -7 0 -8 -14 -4
-42z"/>
<path d="M1431 3844 c0 -11 3 -14 6 -6 3 7 2 16 -1 19 -3 4 -6 -2 -5 -13z"/>
<path d="M2301 3460 c-1 -9 26 -64 59 -124 57 -102 69 -137 37 -104 -8 8 -23
30 -33 48 -13 26 -19 30 -22 18 -3 -18 82 -203 98 -213 6 -4 10 -14 10 -23 -1
-14 -4 -13 -19 6 -22 26 -31 28 -31 7 0 -45 91 -165 124 -165 13 0 3 16 -33
57 -52 59 -62 77 -36 67 24 -10 18 34 -14 103 -24 49 -27 63 -15 67 24 9 16
39 -38 133 -67 115 -87 143 -87 123z"/>
<path d="M1749 3300 c-12 -163 -9 -203 18 -193 12 5 15 2 11 -9 -13 -32 -20
-146 -10 -152 6 -3 14 -1 18 6 4 6 3 13 -3 15 -8 3 -7 20 3 56 16 62 18 127 3
127 -5 0 -7 5 -4 10 3 6 2 10 -4 10 -5 0 -11 -6 -14 -12 -2 -7 -2 17 1 53 2
39 0 74 -6 85 -9 15 -12 15 -13 4z"/>
<path d="M1814 3029 c-18 -22 -27 -59 -15 -59 7 0 11 -30 11 -81 0 -74 2 -81
21 -86 18 -5 20 -11 16 -39 -7 -42 11 -45 20 -4 4 20 11 29 22 28 8 -2 16 2
16 7 0 6 3 15 7 21 5 7 -8 19 -32 30 l-40 19 -1 65 c-1 84 -10 118 -25 99z"/>
<path d="M2430 2927 c0 -26 52 -128 75 -147 17 -14 20 -30 5 -30 -6 0 -16 11
-22 25 -12 26 -34 36 -25 11 3 -8 1 -16 -5 -18 -6 -2 1 -16 17 -30 27 -25 30
-26 58 -12 l29 16 -20 21 c-11 12 -29 40 -41 62 -12 22 -28 50 -37 63 -18 24
-4 31 16 7 7 -8 19 -15 28 -15 9 0 0 14 -24 35 -46 41 -54 42 -54 12z"/>
<path d="M1939 2816 c0 0 -2 -12 -4 -26 -3 -22 3 -27 43 -41 26 -9 55 -20 64
-24 14 -5 16 -2 14 20 -2 22 -12 31 -59 50 -32 12 -57 22 -58 21z"/>
<path d="M2090 2733 c9 -25 18 -31 68 -41 83 -17 110 -15 122 8 13 24 15 23
-85 39 -38 6 -80 14 -92 17 -21 6 -22 4 -13 -23z"/>
<path d="M1905 2740 c3 -5 10 -10 16 -10 5 0 9 5 9 10 0 6 -7 10 -16 10 -8 0
-12 -4 -9 -10z"/>
<path d="M2369 2733 c-30 -3 -38 -9 -42 -29 -5 -27 9 -30 78 -14 25 6 42 5 46
-1 3 -5 13 -7 23 -3 13 5 14 9 5 20 -6 8 -15 11 -20 8 -5 -3 -12 2 -15 10 -3
9 -14 15 -23 14 -9 -1 -32 -3 -52 -5z"/>
<path d="M1830 2690 c-26 -22 -32 -32 -22 -38 10 -7 10 -11 -3 -22 -8 -7 -15
-17 -15 -23 0 -5 9 -2 20 8 10 9 18 27 17 38 -2 23 22 31 35 12 5 -6 8 -4 9 5
0 8 2 23 4 33 5 24 -6 21 -45 -13z"/>
<path d="M1913 2688 c-1 -43 -3 -48 -25 -49 -17 -1 -19 -2 -5 -6 22 -6 22 -18
-4 -53 -17 -23 -21 -38 -16 -71 5 -37 1 -47 -25 -81 -39 -47 -31 -60 11 -18
17 17 35 29 40 25 6 -3 15 3 21 14 11 22 16 118 7 128 -10 10 -28 -48 -21 -70
4 -14 2 -18 -7 -15 -18 6 -13 41 13 96 23 49 36 122 21 122 -6 0 -10 -10 -10
-22z"/>
<path d="M2065 2690 c-3 -5 1 -10 9 -10 9 0 16 5 16 10 0 6 -4 10 -9 10 -6 0
-13 -4 -16 -10z"/>
<path d="M2478 2673 c-20 -5 -23 -14 -8 -29 6 -6 12 -37 14 -70 6 -75 5 -74
18 -44 l11 25 7 -25 c7 -23 8 -23 9 -3 1 12 -5 28 -12 35 -16 15 -27 65 -20
85 8 19 73 -35 90 -74 7 -18 16 -33 19 -33 3 0 2 5 -1 10 -3 6 -1 10 4 10 21
0 10 19 -38 69 -48 50 -57 54 -93 44z"/>
<path d="M2275 2660 c-4 -6 7 -10 25 -10 18 0 29 4 25 10 -3 6 -15 10 -25 10
-10 0 -22 -4 -25 -10z"/>
<path d="M2233 2604 c-13 -14 -23 -26 -23 -28 0 -10 49 21 59 36 17 27 -9 21
-36 -8z"/>
<path d="M2308 2623 c-5 -9 7 -160 12 -153 7 11 6 160 -1 160 -4 0 -9 -3 -11
-7z"/>
<path d="M1826 2604 c-8 -20 14 -38 28 -24 7 7 5 16 -6 26 -14 14 -16 14 -22
-2z"/>
<path d="M2527 2596 c-6 -16 -2 -25 32 -62 7 -8 11 -18 8 -21 -4 -3 3 -24 14
-47 11 -22 14 -33 6 -23 -13 15 -37 24 -37 12 0 -2 12 -26 26 -52 30 -56 80
-107 96 -97 7 4 4 13 -9 23 -29 24 -54 68 -47 85 3 8 -1 30 -10 47 -20 39 -20
40 -1 33 25 -10 17 10 -15 36 -16 14 -30 30 -30 35 0 6 -6 19 -13 29 -13 17
-14 18 -20 2z"/>
<path d="M2010 2593 c0 -5 5 -15 10 -23 8 -12 10 -11 10 8 0 12 -4 22 -10 22
-5 0 -10 -3 -10 -7z"/>
<path d="M2132 2568 c-7 -7 -12 -16 -12 -22 0 -5 3 -6 7 -3 3 4 12 2 20 -5 7
-6 16 -8 20 -4 3 3 1 6 -5 6 -6 0 -9 6 -6 14 7 19 -10 28 -24 14z"/>
<path d="M2230 2530 c0 -5 5 -10 11 -10 8 0 8 -5 -1 -15 -7 -8 -8 -15 -4 -15
5 0 15 9 21 19 10 16 9 20 -3 25 -21 8 -24 8 -24 -4z"/>
<path d="M2091 2514 c0 -11 3 -14 6 -6 3 7 2 16 -1 19 -3 4 -6 -2 -5 -13z"/>
<path d="M2270 2491 c-6 -12 -7 -21 -1 -21 10 0 24 30 17 37 -2 3 -9 -5 -16
-16z"/>
<path d="M1845 2378 l-30 -41 -115 -3 c-373 -8 -769 -146 -958 -331 -29 -29
-59 -68 -68 -88 -12 -30 -17 -34 -34 -25 -30 16 -90 12 -137 -11 -44 -21 -106
-86 -97 -101 3 -5 -8 -26 -25 -47 -44 -56 -38 -72 9 -26 22 21 40 43 40 48 0
6 11 20 25 33 28 26 32 39 10 30 -8 -3 -15 -2 -15 3 0 4 25 20 56 35 61 30
104 30 151 -1 25 -17 44 -10 26 8 -16 16 48 101 116 156 68 53 244 141 366
182 104 36 215 62 227 55 4 -3 8 2 8 10 0 17 15 22 24 8 3 -5 40 -3 83 4 78
12 119 17 246 30 64 6 69 9 102 49 33 40 44 65 28 65 -5 -1 -22 -19 -38 -42z"/>
<path d="M2610 2297 c0 -8 7 -34 15 -57 8 -23 15 -61 15 -84 0 -22 5 -59 10
-81 15 -60 24 -243 12 -258 -15 -19 -27 -145 -12 -131 6 6 14 31 17 55 3 24
10 50 16 57 12 15 15 127 4 164 -6 22 -4 26 8 22 19 -7 19 -4 1 32 -8 16 -20
72 -26 124 -7 52 -18 111 -25 130 -13 35 -35 53 -35 27z"/>
<path d="M322 2180 c0 -14 2 -19 5 -12 2 6 2 18 0 25 -3 6 -5 1 -5 -13z"/>
<path d="M755 1920 c-3 -5 -1 -10 4 -10 6 0 11 5 11 10 0 6 -2 10 -4 10 -3 0
-8 -4 -11 -10z"/>
<path d="M2569 1820 c-1 -8 0 -19 1 -25 1 -5 -1 -38 -5 -72 -5 -48 -10 -61
-21 -56 -10 4 -14 -3 -14 -23 0 -46 -20 -108 -40 -124 -10 -8 -23 -39 -29 -68
-12 -58 -36 -102 -56 -102 -14 0 -51 -88 -56 -135 -10 -80 -1 -203 17 -230 16
-24 19 -25 24 -9 8 21 1 43 60 -180 44 -166 53 -186 112 -255 33 -39 39 -42
72 -36 l35 7 -25 37 c-13 20 -28 46 -33 58 -14 32 -33 40 -26 10 6 -22 4 -23
-25 -19 -37 5 -47 26 -79 167 -13 55 -27 105 -32 111 -6 7 -9 16 -7 20 4 16
-14 78 -38 133 -20 45 -24 69 -23 145 1 100 6 114 56 166 18 19 38 53 44 75 6
22 22 63 35 92 13 28 24 58 24 65 0 7 8 29 19 48 32 61 45 180 22 203 -8 8
-11 7 -12 -3z m51 -1270 c9 -16 8 -20 -5 -20 -8 0 -15 7 -15 16 0 8 -4 13 -9
9 -5 -3 -12 -1 -16 5 -3 5 3 10 14 10 11 0 25 -9 31 -20z"/>
<path d="M1651 1760 c14 -31 19 -36 19 -24 0 6 -7 19 -16 30 -14 18 -14 18 -3
-6z"/>
<path d="M677 1660 c-10 -28 -32 -66 -49 -86 -33 -37 -47 -39 -28 -4 6 12 9
24 6 28 -11 10 -24 -12 -32 -51 l-7 -39 33 17 c18 9 41 25 51 34 36 33 76 151
51 151 -4 0 -15 -23 -25 -50z"/>
<path d="M407 1683 c-3 -5 -10 -28 -17 -53 -7 -25 -21 -57 -32 -73 -24 -34
-16 -47 13 -21 28 25 59 87 59 118 0 25 -15 43 -23 29z"/>
<path d="M2625 1623 c-9 -27 -33 -81 -52 -121 -20 -40 -33 -75 -30 -78 3 -3
-3 -25 -14 -49 -22 -50 -40 -163 -29 -185 4 -8 12 -28 16 -44 15 -49 33 -44
21 6 -17 72 -12 158 12 213 14 30 18 51 12 53 -6 2 0 18 13 35 43 57 99 217
77 217 -5 0 -17 -21 -26 -47z"/>
<path d="M718 1644 c-5 -4 -8 -40 -8 -79 0 -79 27 -201 59 -261 31 -61 39 -76
53 -114 41 -111 180 -359 258 -460 15 -19 32 -53 38 -75 5 -22 17 -65 26 -95
9 -30 28 -102 42 -160 29 -114 51 -157 40 -78 -20 135 -100 402 -127 418 -33
21 -207 345 -271 504 -12 32 -27 59 -33 60 -24 3 -61 169 -68 299 -1 27 -5 45
-9 41z"/>
<path d="M423 1564 c-32 -33 -38 -44 -25 -44 26 0 60 27 77 61 23 44 -2 36
-52 -17z"/>
<path d="M1900 1548 c0 -82 44 -182 100 -231 l41 -35 -88 -50 c-48 -27 -98
-53 -110 -57 -14 -4 -23 -14 -23 -26 0 -26 -18 -24 -23 4 -3 21 -4 20 -17 -8
-10 -24 -14 -26 -17 -12 -4 15 -11 17 -36 11 -28 -6 -130 -7 -181 -1 -36 4
-27 -21 10 -27 33 -7 35 -9 21 -24 -8 -9 -18 -28 -22 -41 -4 -14 -16 -38 -26
-55 -20 -33 -24 -56 -10 -56 12 0 63 86 77 130 l11 35 104 6 c57 4 124 14 149
23 56 21 148 72 177 99 22 19 23 19 29 1 26 -81 63 -134 93 -134 13 0 21 -18
35 -77 10 -43 26 -103 36 -133 10 -30 35 -113 55 -185 46 -159 64 -205 79
-205 6 0 24 -20 39 -45 28 -44 30 -45 70 -39 23 4 43 8 45 9 1 1 -15 29 -36
61 -21 33 -39 73 -40 89 -4 59 -22 221 -33 293 -9 52 -17 76 -30 82 -16 9 -17
6 -13 -27 18 -132 57 -361 65 -375 8 -14 3 -18 -26 -24 -20 -3 -38 -4 -41 -1
-3 3 -25 81 -50 173 -54 204 -78 294 -95 354 -14 53 -28 73 -45 66 -21 -8 -61
49 -79 110 -13 44 -29 69 -67 108 -54 54 -93 129 -104 196 -8 51 -24 62 -24
18z m560 -1065 c8 -16 16 -31 18 -35 2 -5 -6 -8 -18 -8 -12 0 -18 5 -15 10 3
6 -1 10 -9 10 -8 0 -18 5 -22 12 -5 7 -3 8 6 3 9 -5 10 -2 5 14 -10 32 19 27
35 -6z"/>
<path d="M513 1547 c-13 -22 -56 -47 -80 -47 -13 0 -23 -5 -23 -11 0 -7 12 -9
35 -5 19 3 51 9 70 12 22 4 35 12 35 21 0 13 -3 13 -16 2 -13 -11 -14 -9 -9
14 8 29 1 36 -12 14z"/>
<path d="M1520 1412 c0 -12 28 -48 33 -42 8 8 -11 50 -23 50 -5 0 -10 -4 -10
-8z"/>
<path d="M1532 1308 c-3 -69 -12 -110 -27 -123 -7 -5 -26 -46 -43 -90 -17 -44
-36 -79 -41 -78 -15 4 -39 -47 -47 -96 -4 -22 -10 -38 -15 -35 -5 3 -10 0 -10
-5 -1 -6 -3 -15 -4 -21 -1 -5 -3 -15 -4 -22 0 -6 -4 -9 -7 -5 -3 3 -20 -10
-37 -30 -23 -27 -32 -47 -34 -82 -4 -50 30 -355 42 -383 5 -14 2 -18 -13 -18
-11 0 -27 -7 -36 -15 -14 -14 -13 -20 11 -63 14 -26 27 -48 28 -50 5 -5 85 21
85 27 0 3 -13 30 -29 59 -36 64 -26 68 18 7 32 -44 45 -50 88 -39 20 6 21 7 6
42 -8 21 -22 51 -30 69 -10 22 -17 84 -21 200 -6 145 -5 169 9 187 24 30 77
138 79 161 4 33 1 45 -11 45 -7 0 -10 -12 -7 -30 3 -16 1 -30 -3 -30 -5 0 -22
-28 -39 -62 -17 -35 -37 -74 -45 -88 -8 -14 -10 -26 -6 -28 6 -2 6 -16 0 -34
-9 -34 -4 -200 10 -272 l8 -44 -41 -11 c-22 -5 -41 -9 -42 -8 -1 1 -4 36 -8
77 -19 222 -27 307 -31 325 -3 14 6 28 30 45 29 21 95 129 95 155 0 4 11 22
23 39 13 17 32 54 42 81 10 28 24 57 30 65 29 35 43 80 50 153 5 63 4 77 -8
77 -10 0 -14 -15 -15 -52z m-128 -990 c-16 -19 -16 -20 -1 -9 20 16 26 12 32
-17 5 -31 -11 -36 -35 -12 -27 27 -27 60 2 60 21 0 21 0 2 -22z m-74 -49 c0
-10 5 -21 10 -24 13 -8 3 -25 -16 -25 -8 0 -14 7 -14 16 0 10 -6 14 -14 11
-10 -4 -13 -1 -9 9 3 7 0 14 -6 14 -6 0 -8 6 -5 14 8 20 54 8 54 -15z"/>
<path d="M2510 1098 c0 -9 7 -21 15 -28 17 -14 21 -35 4 -24 -13 7 -8 -55 17
-216 18 -112 33 -170 47 -170 5 0 6 8 2 18 -11 30 -45 284 -45 343 0 43 -5 60
-20 74 -17 15 -20 16 -20 3z"/>
<path d="M1596 15 c-3 -8 -1 -15 4 -15 6 0 10 7 10 15 0 19 -6 19 -14 0z"/>
</g>
</svg>
