<?xml version="1.0" standalone="no"?>
<!DOCTYPE svg PUBLIC "-//W3C//DTD SVG 20010904//EN"
 "http://www.w3.org/TR/2001/REC-SVG-20010904/DTD/svg10.dtd">
<svg version="1.0" xmlns="http://www.w3.org/2000/svg"
 width="300.000000pt" height="254.000000pt" viewBox="0 0 300.000000 254.000000"
 preserveAspectRatio="xMidYMid meet">
<metadata>
Created by potrace 1.10, written by Peter Selinger 2001-2011
</metadata>
<g transform="translate(0.000000,254.000000) scale(0.100000,-0.100000)"
fill="#8b008b" stroke="none">
<path d="M1637 2153 c-7 -6 2 -176 13 -247 14 -91 35 -132 81 -162 74 -47 144
-24 184 60 15 32 17 54 11 166 -10 177 -12 184 -64 188 l-41 3 7 -83 c9 -110
8 -228 -2 -256 -7 -18 -5 -21 7 -16 9 3 13 12 11 19 -3 7 3 22 13 32 17 17 17
21 5 32 -11 11 -11 15 -2 21 9 5 11 22 6 53 -4 25 -9 71 -11 102 -3 31 -7 61
-10 66 -4 5 6 9 22 9 22 0 25 -2 13 -10 -13 -8 -12 -10 3 -10 9 0 17 -6 18
-12 3 -57 8 -123 15 -175 4 -42 3 -67 -5 -76 -6 -8 -8 -16 -5 -20 7 -7 -24
-56 -50 -80 -14 -13 -33 -17 -64 -15 -38 3 -49 9 -75 40 -34 42 -45 94 -46
209 -1 46 -6 80 -13 88 -11 10 -10 15 3 24 9 7 14 18 12 25 -3 6 0 12 6 12 6
0 11 -6 11 -14 0 -8 7 -17 16 -20 12 -5 15 0 12 21 -3 23 -8 27 -40 28 -21 1
-39 0 -41 -2z"/>
<path d="M1320 2143 c-52 -18 -81 -39 -110 -80 -30 -41 -33 -53 -34 -117 0
-48 6 -81 17 -103 98 -184 298 -186 351 -4 25 87 1 177 -67 248 -37 39 -120
68 -157 56z m89 -34 c24 -9 29 -14 19 -20 -9 -6 -7 -9 9 -9 21 0 43 -25 43
-49 0 -6 -9 -11 -20 -11 -11 0 -20 -4 -20 -8 0 -20 14 -20 38 -1 l26 20 18
-58 c11 -32 16 -69 13 -83 -3 -14 -7 -36 -9 -49 -2 -13 -8 -26 -13 -30 -6 -3
-13 -16 -17 -28 -4 -12 -16 -25 -27 -28 -10 -4 -19 -11 -19 -16 0 -6 -4 -8 -9
-5 -4 3 -21 0 -37 -6 -25 -9 -38 -7 -78 11 -34 15 -47 25 -42 36 3 8 2 14 -2
14 -10 -2 -52 13 -52 17 0 6 65 62 108 94 70 50 105 87 91 95 -8 5 -10 4 -5
-3 4 -7 1 -12 -7 -12 -8 0 -25 -10 -39 -22 -73 -67 -140 -118 -152 -118 -3 0
-6 9 -6 20 0 11 -4 20 -8 20 -4 0 -6 30 -4 68 4 95 4 93 18 88 8 -3 11 0 8 8
-5 14 36 49 77 65 33 13 60 13 98 0z"/>
<path d="M1106 2101 c-34 -5 -41 -12 -65 -58 -14 -29 -28 -53 -31 -53 -3 0
-18 21 -35 46 -30 44 -31 45 -74 40 -51 -7 -61 -13 -41 -26 9 -5 19 -5 27 2 9
7 13 7 13 0 0 -6 -6 -12 -12 -14 -14 -5 1 -32 49 -87 28 -31 31 -44 43 -155 7
-67 16 -123 21 -126 4 -3 27 -4 50 -2 l41 4 -6 37 c-3 20 -9 74 -12 121 l-6
85 49 98 c27 53 45 96 39 96 -6 -1 -28 -5 -50 -8z m18 -36 c-4 -8 -10 -15 -14
-15 -8 0 -23 -38 -21 -52 1 -5 -3 -8 -9 -8 -5 0 -7 -6 -4 -14 3 -7 -3 -21 -13
-31 -17 -18 -20 -66 -8 -160 12 -90 12 -90 -18 -91 -30 -1 -34 7 -39 83 -2 24
-1 44 2 45 13 6 -31 124 -55 150 -14 15 -25 34 -25 43 0 9 -4 14 -9 11 -5 -4
-7 3 -4 14 7 27 31 25 42 -2 5 -13 20 -33 34 -46 l25 -23 28 26 c16 15 28 34
26 42 -4 17 25 42 50 43 11 0 15 -5 12 -15z"/>
<path d="M1708 2056 c-2 -19 -1 -33 3 -31 3 3 9 -24 13 -58 4 -34 8 -71 10
-82 2 -11 4 -24 5 -30 3 -19 59 -75 75 -75 13 0 14 3 4 19 -7 11 -20 22 -30
24 -26 7 -38 48 -51 165 -11 104 -22 129 -29 68z"/>
<path d="M1860 1840 c0 -11 2 -20 4 -20 2 0 6 9 9 20 3 11 1 20 -4 20 -5 0 -9
-9 -9 -20z"/>
<path d="M2254 1653 c-38 -4 -43 -7 -64 -54 -13 -27 -26 -49 -29 -49 -3 0 -21
22 -39 49 -24 36 -38 47 -55 45 -12 -1 -34 -3 -50 -3 -27 -1 -27 -2 37 -85 63
-83 64 -85 75 -172 6 -49 12 -102 14 -119 2 -29 3 -30 51 -27 27 1 50 3 51 5
1 1 -4 52 -11 114 l-14 112 32 68 c17 37 40 80 51 96 13 19 14 26 5 25 -7 -1
-31 -3 -54 -5z m10 -32 c3 -5 -1 -14 -9 -21 -8 -7 -12 -16 -9 -21 3 -5 0 -9
-7 -9 -7 0 -10 -3 -6 -6 3 -3 -3 -22 -13 -42 -19 -38 -27 -116 -17 -162 3 -14
8 -42 11 -62 4 -32 2 -38 -14 -38 -25 0 -29 8 -35 71 -10 96 -27 158 -52 180
-12 13 -23 28 -23 36 0 7 -4 13 -8 13 -8 0 -32 43 -32 55 0 3 9 5 20 5 11 0
20 -5 20 -11 0 -6 7 -17 15 -25 8 -8 21 -25 30 -36 13 -20 17 -20 40 -8 13 7
28 23 31 34 7 24 33 56 45 56 4 0 10 -4 13 -9z"/>
<path d="M2175 1500 c3 -5 8 -10 11 -10 2 0 4 5 4 10 0 6 -5 10 -11 10 -5 0
-7 -4 -4 -10z"/>
<path d="M1939 1615 c-4 -3 -187 -17 -252 -19 -15 0 -17 -8 -15 -46 l3 -45 49
-2 c27 -1 50 -4 51 -5 2 -2 5 -34 8 -73 15 -177 20 -221 27 -229 5 -5 29 -5
54 -2 54 8 51 -4 31 166 -8 69 -15 131 -15 138 0 8 16 12 46 12 43 0 46 2 40
23 -3 12 -6 37 -6 55 0 29 -9 40 -21 27z m-1 -53 c3 -22 -1 -25 -51 -36 l-28
-7 5 -80 c3 -44 7 -83 10 -87 2 -4 7 -36 10 -72 l6 -65 -33 0 c-31 0 -32 2
-31 38 1 20 -3 37 -8 37 -4 0 -6 11 -2 25 4 17 2 25 -6 25 -9 0 -8 6 4 19 15
17 15 20 1 34 -8 9 -16 34 -17 57 -1 41 -18 69 -41 71 -7 1 -23 2 -37 3 -18 1
-26 7 -28 24 -2 12 0 22 5 23 77 6 128 11 130 12 1 1 25 2 55 2 47 0 53 -2 56
-23z"/>
<path d="M1334 1553 c2 -27 4 -62 5 -80 1 -22 5 -31 16 -29 9 1 14 6 13 12 -2
5 -6 8 -10 7 -5 -2 -8 2 -8 7 0 6 7 10 16 10 15 0 15 2 0 25 -20 31 -20 35 1
35 15 0 15 1 -2 13 -28 21 -6 27 82 24 73 -3 82 -5 107 -31 14 -16 26 -32 27
-35 0 -3 2 -24 5 -47 7 -55 -16 -111 -50 -120 -31 -7 -35 -24 -6 -24 56 0 92
104 67 192 -19 65 -66 88 -180 88 l-87 0 4 -47z"/>
<path d="M1009 1539 c-10 -6 -11 -11 -3 -19 9 -9 14 -9 18 -1 9 13 56 15 56 2
0 -5 -6 -12 -12 -14 -10 -4 -10 -6 0 -6 7 -1 15 6 18 14 5 12 10 13 20 4 8 -6
14 -16 14 -21 0 -5 18 -52 40 -104 23 -52 38 -99 35 -104 -3 -6 -2 -10 3 -10
5 0 18 -25 29 -55 l21 -55 -30 0 c-21 0 -31 6 -35 20 -3 11 -8 20 -12 21 -3 0
-25 2 -48 5 -24 3 -51 0 -60 -5 -14 -8 -5 -10 38 -11 49 0 57 -3 69 -25 11
-21 21 -25 57 -25 24 0 43 2 43 6 0 5 -54 149 -71 189 -4 11 -20 49 -34 85
-52 127 -44 118 -96 118 -25 0 -53 -4 -60 -9z"/>
<path d="M735 1526 c-5 -3 -32 -7 -59 -11 l-48 -7 7 -91 c5 -51 9 -108 10
-127 2 -19 3 -36 4 -37 1 -2 12 6 25 18 29 25 192 136 208 141 19 7 -4 68 -33
90 -24 18 -92 32 -114 24z m106 -47 c16 -17 28 -36 26 -42 -2 -6 -26 -26 -53
-43 -27 -18 -57 -40 -66 -48 -9 -8 -31 -22 -48 -31 -38 -19 -44 -10 -38 65 1
27 0 50 -4 50 -5 0 -8 16 -8 36 0 33 2 36 24 30 14 -3 28 -2 31 4 3 5 29 10
56 10 42 0 54 -5 80 -31z"/>
<path d="M997 1493 c-4 -3 -7 -22 -7 -42 0 -20 -4 -51 -9 -69 -6 -20 -6 -32 0
-32 5 0 3 -10 -5 -22 -8 -13 -17 -43 -21 -68 -3 -25 -10 -63 -15 -85 -14 -57
-13 -58 23 -51 17 4 40 7 50 7 10 0 17 8 17 19 0 17 -2 18 -26 5 -34 -17 -57
-9 -48 17 3 11 10 43 14 72 13 80 16 90 28 94 8 2 8 8 0 21 -6 10 -8 27 -4 37
8 18 8 18 16 -1 7 -16 9 -17 9 -3 1 9 -3 19 -8 22 -5 3 -7 24 -4 46 6 39 3 47
-10 33z"/>
<path d="M1345 1420 c-4 -6 -3 -15 1 -21 4 -8 9 -7 15 2 6 10 9 8 9 -8 0 -13
5 -23 11 -23 6 0 8 7 5 16 -3 9 -6 19 -6 24 0 12 -29 20 -35 10z"/>
<path d="M1350 1366 c0 -10 4 -15 9 -11 5 3 12 -4 16 -15 3 -11 11 -20 16 -20
19 0 7 25 -23 49 -16 12 -18 11 -18 -3z"/>
<path d="M840 1360 c-18 -12 -2 -12 25 0 13 6 15 9 5 9 -8 0 -22 -4 -30 -9z"/>
<path d="M845 1330 c3 -5 8 -10 11 -10 2 0 4 5 4 10 0 6 -5 10 -11 10 -5 0 -7
-4 -4 -10z"/>
<path d="M1353 1319 c3 -13 9 -61 13 -106 l6 -81 32 2 c17 2 37 4 45 5 11 1
13 15 8 66 -4 39 -2 65 3 65 6 0 10 -5 10 -11 0 -6 17 -33 38 -60 34 -44 41
-48 79 -49 47 0 61 11 37 31 -9 7 -34 39 -55 71 -23 33 -47 58 -57 58 -16 -1
-16 -1 1 -11 9 -5 17 -17 17 -24 0 -8 4 -15 8 -15 10 0 37 -50 34 -62 -1 -5 3
-7 9 -5 6 1 13 -3 16 -9 2 -7 -5 -10 -21 -7 -27 6 -78 57 -68 69 4 4 1 4 -5 0
-7 -4 -13 -3 -13 2 0 5 -12 22 -27 38 -17 18 -24 22 -20 11 7 -19 -18 -67 -35
-67 -6 0 -8 11 -6 25 3 14 1 28 -4 31 -6 4 -5 10 3 16 10 7 8 8 -8 5 -15 -3
-23 0 -23 8 0 8 -5 17 -11 21 -8 5 -10 0 -6 -17z m43 -87 c7 -45 7 -62 -3 -71
-10 -9 -13 -7 -13 12 0 13 -3 45 -6 71 -10 68 10 57 22 -12z m42 -39 c-3 -43
-19 -51 -25 -13 -4 30 3 50 17 50 7 0 10 -15 8 -37z"/>
<path d="M711 1153 c-1 -36 3 -63 9 -63 12 0 12 30 1 85 -8 38 -9 37 -10 -22z"/>
<path d="M2623 1177 c-24 -4 -43 -12 -43 -16 0 -5 6 -46 14 -92 8 -46 18 -110
21 -141 l7 -58 42 6 c22 4 43 8 44 10 5 4 -29 264 -37 284 -5 13 -14 14 -48 7z
m32 -27 c4 -6 8 -29 10 -53 2 -23 8 -71 14 -106 11 -66 4 -91 -24 -91 -17 0
-28 31 -16 43 7 7 7 15 1 22 -5 6 -14 38 -19 70 -6 33 -14 72 -17 87 -5 20 -2
27 13 31 29 8 32 7 38 -3z"/>
<path d="M657 1134 c-3 -4 1 -20 9 -36 9 -17 18 -27 21 -24 3 3 -2 16 -10 30
-12 18 -13 26 -4 29 7 3 7 6 1 6 -6 1 -13 -2 -17 -5z"/>
<path d="M2337 1112 l-49 -3 6 -37 c8 -50 35 -277 39 -327 3 -40 3 -40 43 -37
21 1 69 8 107 14 l67 11 0 50 0 50 -59 -6 -58 -5 -18 142 c-9 77 -20 143 -24
146 -3 3 -28 4 -54 2z m45 -67 c5 -22 15 -82 23 -134 8 -51 16 -96 19 -98 3
-3 28 -6 56 -6 50 0 63 -12 42 -43 -7 -11 -81 -31 -136 -36 -33 -3 -35 2 -40
98 -1 33 -6 67 -11 74 -6 9 -4 11 6 5 11 -7 12 -6 3 6 -16 20 -23 68 -11 72 6
2 4 15 -6 35 -8 18 -11 30 -6 27 5 -4 9 -2 9 4 0 5 -5 13 -10 16 -18 11 1 26
28 23 22 -2 28 -10 34 -43z"/>
<path d="M2000 1065 c0 -9 6 -12 15 -9 8 4 15 7 15 9 0 2 -7 5 -15 9 -9 3 -15
0 -15 -9z"/>
<path d="M2090 1067 c0 -19 16 -31 24 -18 3 5 -1 14 -9 21 -12 10 -15 10 -15
-3z"/>
<path d="M2058 1063 c7 -3 16 -2 19 1 4 3 -2 6 -13 5 -11 0 -14 -3 -6 -6z"/>
<path d="M1458 1043 l-46 -4 -7 -62 c-3 -34 -9 -75 -12 -92 -4 -23 -2 -27 7
-19 6 6 13 39 14 73 4 73 16 94 17 30 0 -33 2 -39 9 -24 4 11 5 32 3 48 -5 26
-4 27 34 27 l40 0 29 -87 c31 -95 50 -121 72 -99 13 12 19 33 21 66 1 13 2 13
11 0 8 -11 9 -8 4 11 -3 16 -1 30 6 34 6 4 8 15 5 26 -8 25 16 49 49 49 20 0
26 -5 28 -22 2 -41 3 -45 14 -59 15 -19 39 -102 46 -156 1 -7 5 -13 10 -13 4
0 8 -6 8 -12 0 -8 -16 -14 -39 -16 -37 -2 -40 0 -51 33 -6 19 -15 35 -20 35
-15 0 -40 -31 -40 -50 0 -24 -8 -29 -63 -36 l-44 -6 -22 46 c-13 25 -29 46
-36 46 -20 0 -37 -26 -38 -62 -2 -30 -5 -33 -34 -36 -36 -4 -44 11 -15 27 11
7 13 10 3 11 -10 0 -12 8 -7 30 5 25 2 30 -14 30 -11 0 -20 -4 -20 -10 0 -5 8
-7 18 -4 14 5 14 3 -3 -11 -18 -15 -18 -18 -4 -27 14 -10 14 -13 -3 -30 -32
-32 -23 -45 30 -41 71 6 72 7 72 63 0 27 5 50 10 50 6 0 10 -8 10 -18 0 -10 4
-22 8 -27 5 -6 19 -38 33 -72 24 -64 30 -69 84 -63 24 2 22 -2 29 40 6 33 5
34 -5 7 -9 -22 -15 -26 -31 -21 -15 4 -18 3 -13 -6 5 -8 3 -11 -5 -8 -8 2 -18
13 -24 24 -6 10 -18 23 -26 29 -12 7 -9 11 15 16 17 4 46 7 66 8 39 1 49 13
49 57 0 37 15 29 28 -15 12 -37 14 -39 45 -32 57 12 70 8 78 -24 9 -33 1 -47
-32 -52 -15 -2 -24 5 -32 27 -6 16 -17 30 -24 30 -16 0 -16 -3 2 -46 14 -33
17 -35 47 -29 18 4 36 13 40 19 6 8 8 7 8 -1 0 -7 7 -13 16 -13 11 0 14 5 9
18 -12 28 -41 118 -85 260 l-42 132 -47 0 -47 0 -23 -100 c-13 -55 -26 -100
-30 -100 -3 0 -21 48 -39 105 -19 62 -38 104 -45 103 -7 -1 -33 -3 -59 -5z"/>
<path d="M1125 973 c4 -32 11 -94 30 -247 1 -12 5 -49 10 -83 l7 -63 36 0 c65
0 84 10 77 37 -3 13 -12 72 -20 131 -8 59 -16 116 -19 127 -2 12 -7 46 -11 78
l-7 57 -54 0 -54 0 5 -37z m83 -27 c4 -45 7 -59 16 -74 7 -11 11 -38 20 -143
2 -20 6 -41 8 -45 2 -5 5 -24 6 -41 2 -28 -2 -34 -24 -39 -33 -9 -58 19 -49
54 3 13 1 29 -4 36 -6 7 -10 26 -10 42 0 16 -2 44 -5 62 -3 17 -8 44 -10 60
-2 15 -7 47 -10 72 -7 41 -5 46 16 55 29 13 42 2 46 -39z"/>
<path d="M1980 985 c0 -15 4 -24 10 -20 6 3 10 12 10 20 0 8 -4 17 -10 20 -6
4 -10 -5 -10 -20z"/>
<path d="M2120 1003 c0 -6 8 -17 18 -24 16 -13 16 -13 2 6 -8 11 -16 22 -17
24 -2 2 -3 0 -3 -6z"/>
<path d="M988 984 c-3 -3 -19 -6 -34 -7 -16 -1 -29 -7 -29 -12 2 -51 18 -202
24 -219 7 -17 9 -15 13 17 2 20 2 37 -2 37 -3 0 -6 36 -6 80 -1 53 2 80 10 79
19 -1 41 -14 41 -24 0 -5 4 -46 8 -90 17 -195 18 -242 5 -247 -10 -4 -65 -3
-88 1 -3 1 -14 19 -24 41 -11 22 -22 40 -26 40 -4 0 -20 18 -35 40 -15 22 -32
37 -38 33 -8 -5 -8 -8 -1 -10 6 -2 35 -42 65 -89 53 -84 54 -85 89 -80 19 3
50 6 68 6 28 0 32 3 27 23 -2 12 -9 85 -15 162 -14 187 -20 225 -34 225 -7 0
-15 -2 -18 -6z"/>
<path d="M732 952 c-28 -8 -27 -2 -17 -105 4 -45 8 -95 9 -112 2 -16 6 -65 11
-107 l7 -78 45 0 45 0 -6 53 c-13 104 -18 127 -27 127 -5 0 -7 -10 -4 -22 12
-57 13 -93 3 -105 -8 -10 -7 -13 3 -13 10 0 10 -3 2 -11 -7 -7 -18 -9 -26 -6
-17 6 -26 52 -33 154 -2 37 -8 93 -12 124 -5 31 -6 62 -3 70 6 15 51 19 50 5
0 -5 3 -12 8 -15 5 -3 23 -27 41 -54 34 -52 39 -57 78 -102 43 -50 20 -4 -46
90 -34 49 -64 95 -67 102 -5 14 -23 15 -61 5z"/>
<path d="M835 949 c-4 -6 -5 -12 -2 -15 2 -3 7 2 10 11 7 17 1 20 -8 4z"/>
<path d="M473 913 c-30 -4 -33 -8 -33 -36 0 -18 -4 -48 -9 -67 -6 -19 -12 -53
-16 -74 -3 -21 -8 -51 -10 -65 -5 -22 -4 -23 4 -6 18 38 24 60 26 97 3 43 12
61 27 52 6 -4 6 1 -1 14 -13 25 -14 35 -3 28 5 -3 8 5 8 16 -1 18 5 22 37 24
30 2 37 0 33 -11 -2 -7 -2 -15 2 -17 8 -4 52 -109 52 -125 0 -6 8 -25 17 -42
10 -16 14 -33 11 -37 -4 -4 -29 -9 -55 -11 -27 -2 -77 -9 -112 -16 l-65 -12
-13 -50 c-7 -27 -13 -52 -13 -55 0 -3 20 -4 44 -2 37 3 45 8 49 28 5 30 -9 42
-18 14 -10 -30 -45 -26 -45 5 0 16 6 25 15 25 8 0 15 7 15 16 0 14 2 13 17 -1
13 -13 27 -16 57 -11 81 12 79 13 89 -20 9 -30 11 -32 51 -27 22 3 42 6 43 7
2 2 -91 268 -103 295 -4 9 -8 18 -9 21 -14 52 -14 52 -92 43z m114 -279 c-3
-3 -12 -4 -19 -1 -8 3 -5 6 6 6 11 1 17 -2 13 -5z m48 -21 c0 -6 3 -15 8 -19
26 -26 -19 -28 -48 -2 -17 16 -18 20 -5 28 19 13 45 8 45 -7z"/>
<path d="M1430 910 c0 -5 5 -10 11 -10 5 0 7 5 4 10 -3 6 -8 10 -11 10 -2 0
-4 -4 -4 -10z"/>
<path d="M1971 864 c0 -11 3 -14 6 -6 3 7 2 16 -1 19 -3 4 -6 -2 -5 -13z"/>
<path d="M1387 843 c-4 -3 -7 -11 -7 -17 0 -6 5 -5 12 2 6 6 9 14 7 17 -3 3
-9 2 -12 -2z"/>
<path d="M2648 806 c-23 -17 -23 -58 0 -79 24 -22 45 -21 65 1 22 24 21 55 -1
75 -22 20 -41 21 -64 3z m57 -38 c-1 -11 -10 -25 -20 -30 -13 -8 -16 -7 -11 1
4 6 3 11 -2 11 -5 0 -12 9 -15 20 -3 11 -1 18 4 14 5 -3 9 -1 9 4 0 6 8 8 18
5 11 -3 18 -13 17 -25z"/>
<path d="M1954 786 c4 -15 1 -26 -7 -29 -6 -2 -9 -8 -4 -12 4 -5 10 -5 14 -1
11 11 12 66 1 66 -6 0 -8 -11 -4 -24z"/>
<path d="M2206 781 c-4 -7 -5 -15 -2 -18 9 -9 19 4 14 18 -4 11 -6 11 -12 0z"/>
<path d="M450 759 c0 -5 5 -7 10 -4 6 3 10 8 10 11 0 2 -4 4 -10 4 -5 0 -10
-5 -10 -11z"/>
<path d="M2035 750 c3 -5 8 -10 11 -10 2 0 4 5 4 10 0 6 -5 10 -11 10 -5 0 -7
-4 -4 -10z"/>
<path d="M2156 741 c-4 -7 -5 -15 -2 -18 9 -9 19 4 14 18 -4 11 -6 11 -12 0z"/>
<path d="M925 710 c-3 -6 1 -7 9 -4 18 7 21 14 7 14 -6 0 -13 -4 -16 -10z"/>
<path d="M2175 700 c3 -5 10 -10 16 -10 5 0 9 5 9 10 0 6 -7 10 -16 10 -8 0
-12 -4 -9 -10z"/>
<path d="M1927 694 c-9 -10 2 -24 19 -24 8 0 14 7 14 15 0 15 -21 21 -33 9z"/>
<path d="M1988 683 c7 -3 16 -2 19 1 4 3 -2 6 -13 5 -11 0 -14 -3 -6 -6z"/>
<path d="M1460 648 c0 -32 -11 -45 -40 -49 -18 -3 -25 1 -28 16 -9 57 -25 56
-35 -2 l-6 -33 55 0 c35 0 56 4 58 13 12 36 14 77 6 77 -6 0 -10 -10 -10 -22z
m-83 -20 c-3 -8 -6 -5 -6 6 -1 11 2 17 5 13 3 -3 4 -12 1 -19z"/>
</g>
</svg>
